<svg width="120" height="120" viewBox="0 0 120 120" fill="none" xmlns="http://www.w3.org/2000/svg">
<circle cx="60" cy="60" r="59.5" fill="#282828" stroke="#5658DD"/>
<path d="M58.29 66.545C57.77 70.3583 57.38 74.2367 57.12 78.18C54.7367 78.8733 52.31 79.5017 49.84 80.065C47.37 80.6283 44.7267 80.91 41.91 80.91C37.1 80.91 32.9183 79.9567 29.365 78.05C25.855 76.1433 23.125 73.4783 21.175 70.055C19.225 66.5883 18.25 62.515 18.25 57.835C18.25 53.1117 19.225 48.9517 21.175 45.355C23.125 41.715 25.8767 38.8767 29.43 36.84C32.9833 34.8033 37.165 33.785 41.975 33.785C43.7517 33.785 45.3117 33.8933 46.655 34.11C47.9983 34.3267 49.6233 34.6517 51.53 35.085C52.3967 35.2583 53.155 35.4317 53.805 35.605C54.455 35.7783 55.1267 35.865 55.82 35.865C56.0367 35.865 56.275 35.865 56.535 35.865C56.795 35.8217 57.0117 35.7783 57.185 35.735C57.2717 37.6417 57.3583 39.6133 57.445 41.65C57.5317 43.6867 57.6617 45.81 57.835 48.02C56.9683 48.15 56.2317 48.1933 55.625 48.15C53.935 40.3067 49.4933 36.385 42.3 36.385C39.3967 36.385 36.9267 36.97 34.89 38.14C32.8533 39.2667 31.2067 40.8267 29.95 42.82C28.6933 44.77 27.7833 46.98 27.22 49.45C26.6567 51.92 26.375 54.4983 26.375 57.185C26.375 60.9983 26.9383 64.5083 28.065 67.715C29.1917 70.9217 30.9683 73.4783 33.395 75.385C35.8217 77.2917 38.9417 78.245 42.755 78.245C46.3517 78.245 49.2117 77.2917 51.335 75.385C53.5017 73.4783 55.0617 70.51 56.015 66.48C56.3617 66.48 56.7083 66.48 57.055 66.48C57.445 66.48 57.8567 66.5017 58.29 66.545ZM80.3057 80.78C78.659 80.78 77.034 80.5633 75.4307 80.13C73.8274 79.6967 72.224 79.0683 70.6207 78.245C70.3174 78.635 70.014 79.0033 69.7107 79.35C69.4074 79.6967 69.1257 80.065 68.8657 80.455C68.5624 80.4117 68.259 80.3683 67.9557 80.325C67.6957 80.2817 67.4574 80.2383 67.2407 80.195C67.3274 79.415 67.3707 78.3967 67.3707 77.14C67.3707 75.84 67.3707 74.3233 67.3707 72.59V40.675C67.3707 39.3317 67.2407 38.335 66.9807 37.685C66.7207 36.9917 66.2007 36.515 65.4207 36.255C64.684 35.9517 63.5574 35.735 62.0407 35.605C61.9107 35.0417 61.9107 34.4567 62.0407 33.85C63.774 33.6333 65.5507 33.3083 67.3707 32.875C69.1907 32.3983 71.054 31.7483 72.9607 30.925L74.0657 31.315C74.0224 32.2683 73.979 33.3517 73.9357 34.565C73.9357 35.7783 73.9357 37.1 73.9357 38.53V52.375C75.7124 50.7717 77.424 49.645 79.0707 48.995C80.7607 48.345 82.4074 48.02 84.0107 48.02C86.7407 48.02 89.059 48.7567 90.9657 50.23C92.9157 51.66 94.389 53.545 95.3857 55.885C96.4257 58.1817 96.9457 60.6517 96.9457 63.295C96.9457 66.3717 96.2307 69.2533 94.8007 71.94C93.414 74.5833 91.464 76.7283 88.9507 78.375C86.4807 79.9783 83.599 80.78 80.3057 80.78ZM73.8707 55.235V74.865C75.864 77.1183 78.269 78.245 81.0857 78.245C83.2957 78.245 85.0724 77.6383 86.4157 76.425C87.759 75.2117 88.7124 73.63 89.2757 71.68C89.8824 69.73 90.1857 67.6717 90.1857 65.505C90.1857 63.3817 89.8824 61.3017 89.2757 59.265C88.7124 57.185 87.759 55.4733 86.4157 54.13C85.1157 52.7433 83.3174 52.05 81.0207 52.05C79.764 52.05 78.529 52.31 77.3157 52.83C76.1024 53.35 74.954 54.1517 73.8707 55.235Z" fill="#5658DD"/>
</svg>
